<?xml version="1.0" encoding="UTF-8"?><svg id="a" xmlns="http://www.w3.org/2000/svg" width="256" height="384" xmlns:xlink="http://www.w3.org/1999/xlink" viewBox="0 0 256 384"><defs><style>.i,.j{fill:none;}.k{fill:#e2e8f0;}.l{fill:#bfc8d4;}.m{fill:#cbd5e1;}.n{fill:#64758b;}.o{fill:#475569;}.j{clip-path:url(#h);}.p{clip-path:url(#g);}.q{isolation:isolate;}</style><clipPath id="h"><polygon points=".5 -95.5 1 -95.5 .5 -95 .5 -95.5" style="fill:none;"/></clipPath><clipPath id="g"><polygon points="-.5 -96.5 -1 -96.5 -.5 -97 -.5 -96.5" style="clip-path:url(#h); fill:none;"/></clipPath></defs><g id="b"><rect y="-96" width="768" height="480" style="fill:#cbd5e1;"/></g><g id="c"><rect x="-32.7" y="319" width="336.79998" height="32.5" style="fill:#bfc8d4;"/><rect x="-29" y="255" width="336.79999" height="32.5" style="fill:#bfc8d4;"/><rect x="-29" y="159.3" width="336.79999" height="32.5" style="fill:#bfc8d4;"/><rect x="-29" y="95" width="336.79999" height="32.5" style="fill:#bfc8d4;"/><rect x="-29.1" y="31" width="336.79998" height="32.5" style="fill:#bfc8d4;"/></g><g id="d"><rect x="-2.8" y="31" width="263.70002" height="1" style="fill:#e2e8f0;"/><rect x="-4.6" y="63" width="265.20001" height="1" style="fill:#e2e8f0;"/><rect x="-3.8" y="95" width="264.20002" height="1" style="fill:#e2e8f0;"/><rect x="-1" y="127" width="261.20001" height="1" style="fill:#e2e8f0;"/><rect x="-1.7" y="159" width="260.39998" height="1" style="fill:#e2e8f0;"/><rect x="-1.7" y="191" width="260.39998" height="1" style="fill:#e2e8f0;"/><rect x="-.2" y="223" width="260.39998" height="1" style="fill:#e2e8f0;"/><rect x="-4.5" y="255" width="260.39999" height="1" style="fill:#e2e8f0;"/><rect x="-3.1" y="287" width="260.39999" height="1" style="fill:#e2e8f0;"/><rect x="-4" y="319" width="260.39999" height="1" style="fill:#e2e8f0;"/><rect x="-2.5" y="351" width="260.39999" height="1" style="fill:#e2e8f0;"/><rect x="-2.5" y="383" width="260.39999" height="1" style="fill:#e2e8f0;"/></g><g id="e"><rect y="-96" width="1" height="480" style="fill:#e2e8f0;"/><rect x="8" y="-96" width="1" height="480" style="fill:#e2e8f0;"/><rect x="16" y="-96" width="1" height="480" style="fill:#e2e8f0;"/><rect x="24" y="-96" width="1" height="480" style="fill:#e2e8f0;"/><rect x="32.1" y="-95.9" width="1" height="480.00001" style="fill:#e2e8f0;"/><rect x="40.1" y="-95.9" width="1" height="480.00001" style="fill:#e2e8f0;"/><rect x="48.1" y="-95.9" width="1" height="480.00001" style="fill:#e2e8f0;"/><rect x="56.1" y="-95.9" width="1" height="480.00001" style="fill:#e2e8f0;"/><rect x="64.1" y="-96" width="1" height="480" style="fill:#e2e8f0;"/><rect x="72.1" y="-96" width="1" height="480" style="fill:#e2e8f0;"/><rect x="80" y="-96" width="1" height="480" style="fill:#e2e8f0;"/><rect x="88" y="-96" width="1" height="480" style="fill:#e2e8f0;"/><rect x="96.2" y="-95.9" width="1" height="480.00001" style="fill:#e2e8f0;"/><rect x="104.2" y="-95.9" width="1" height="480.00001" style="fill:#e2e8f0;"/><rect x="112.2" y="-95.9" width="1" height="480.00001" style="fill:#e2e8f0;"/><rect x="120.2" y="-95.9" width="1" height="480.00001" style="fill:#e2e8f0;"/><rect x="127.7" y="-96.6" width="1" height="479.99999" style="fill:#e2e8f0;"/><rect x="135.7" y="-96.6" width="1" height="479.99999" style="fill:#e2e8f0;"/><rect x="143.7" y="-96.6" width="1" height="479.99999" style="fill:#e2e8f0;"/><rect x="151.60001" y="-96.6" width="1" height="479.99999" style="fill:#e2e8f0;"/><rect x="159.8" y="-96.5" width="1" height="480" style="fill:#e2e8f0;"/><rect x="167.8" y="-96.5" width="1" height="480" style="fill:#e2e8f0;"/><rect x="175.8" y="-96.5" width="1" height="480" style="fill:#e2e8f0;"/><rect x="183.8" y="-96.5" width="1" height="480" style="fill:#e2e8f0;"/><rect x="191.8" y="-96.5" width="1" height="480" style="fill:#e2e8f0;"/><rect x="199.7" y="-96.5" width="1" height="480" style="fill:#e2e8f0;"/><rect x="207.7" y="-96.6" width="1" height="479.99999" style="fill:#e2e8f0;"/><rect x="215.7" y="-96.6" width="1" height="479.99999" style="fill:#e2e8f0;"/><rect x="223.89999" y="-96.4" width="1" height="480.00001" style="fill:#e2e8f0;"/><rect x="231.89999" y="-96.4" width="1" height="480.00001" style="fill:#e2e8f0;"/><rect x="239.89999" y="-96.4" width="1" height="480.00001" style="fill:#e2e8f0;"/><rect x="247.8" y="-96.4" width="1" height="480.00001" style="fill:#e2e8f0;"/><rect x="255.8" y="-96.3" width=".99998" height="480.00002" style="fill:#e2e8f0;"/><rect x="254.10001" y="-96.5" width="1.89999" height="480.5" style="fill:#475569;"/><rect x="191" y="-95.7" width="1" height="479.99998" style="fill:#64758b;"/><rect x="127" y="-96.9" width="1" height="480.9" style="fill:#64758b;"/><rect x="63" y="-96" width="1" height="480.29999" style="fill:#64758b;"/></g><g id="f"><g style="clip-path:url(#g);"><g style="isolation:isolate;"><image transform="translate(-384 -336.01001) scale(.5)" xlink:href="143869C9FD464D10.png" style="isolation:isolate;"/></g></g></g></svg>