<?xml version="1.0" encoding="UTF-8"?><svg xmlns="http://www.w3.org/2000/svg" width="255.98" height="352" viewBox="0 0 255.98 352"><defs><style>.f{fill:#e2e8f0;}.g{fill:#bfc8d4;}.h{fill:#cbd5e1;}.i{fill:#64758b;}.j{fill:#475569;}</style></defs><g id="a"><rect class="h" y="-6.35" width="263.09" height="358.34"/></g><g id="b"><rect class="g" x="-3.78" y="223.75" width="258.85" height="31.51"/><rect class="g" x="-2.32" y="63.74" width="258.85" height="31.51"/><rect class="g" x="-4.57" width="258.85" height="31.51"/><rect class="g" x=".51" y="127.74" width="258.85" height="31.51"/><rect class="g" x="-1.42" y="287.75" width="258.85" height="31.51"/></g><g id="c"/><g id="d"><rect class="f" x="-4.57" y="30.99" width="265.19" height="1.01"/><rect class="f" x="-3.83" y="63.03" width="264.23" height="1.01"/><rect class="f" x="-1.05" y="94.97" width="261.17" height="1.01"/><rect class="f" x="-1.7" y="127" width="260.36" height="1.01"/><rect class="f" x="-1.7" y="158.99" width="260.36" height="1.01"/><rect class="f" x="-.25" y="191" width="260.36" height="1.01"/><rect class="f" x="-4.53" y="222.98" width="260.36" height="1.01"/><rect class="f" x="-3.08" y="254.99" width="260.36" height="1.01"/><rect class="f" x="-3.98" y="286.98" width="260.36" height="1.01"/><rect class="f" x="-2.53" y="319" width="260.36" height="1.01"/><rect class="f" x="-2.47" y="351" width="260.36" height="1.01"/></g><g id="e"><rect class="f" y="-17.02" width="1" height="369.09"/><rect class="f" x="7.98" y="-17.02" width="1" height="369.09"/><rect class="f" x="15.97" y="-17.05" width="1" height="369.09"/><rect class="f" x="23.96" y="-17.05" width="1" height="369.09"/><rect class="f" x="32.13" y="-16.93" width="1" height="369.09"/><rect class="f" x="40.12" y="-16.93" width="1" height="369.09"/><rect class="f" x="48.11" y="-16.97" width="1" height="369.09"/><rect class="f" x="56.09" y="-16.97" width="1" height="369.09"/><rect class="f" x="64.07" y="-16.98" width="1" height="369.09"/><rect class="f" x="72.05" y="-16.98" width="1" height="369.09"/><rect class="f" x="80.04" y="-17.01" width="1" height="369.09"/><rect class="f" x="88.02" y="-17.01" width="1" height="369.09"/><rect class="f" x="96.2" y="-16.89" width="1" height="369.09"/><rect class="f" x="104.18" y="-16.89" width="1" height="369.09"/><rect class="f" x="112.18" y="-16.92" width="1" height="369.09"/><rect class="f" x="120.16" y="-16.92" width="1" height="369.09"/><rect class="f" x="127.69" y="-17.45" width="1" height="369.09"/><rect class="f" x="135.67" y="-17.45" width="1" height="369.09"/><rect class="f" x="143.66" y="-17.48" width="1" height="369.09"/><rect class="f" x="151.64" y="-17.48" width="1" height="369.09"/><rect class="f" x="159.82" y="-17.36" width="1" height="369.09"/><rect class="f" x="167.8" y="-17.36" width="1" height="369.09"/><rect class="f" x="175.79" y="-17.39" width="1" height="369.09"/><rect class="f" x="183.78" y="-17.39" width="1" height="369.09"/><rect class="f" x="191.75" y="-17.4" width="1" height="369.09"/><rect class="f" x="199.74" y="-17.4" width="1" height="369.09"/><rect class="f" x="207.73" y="-17.44" width="1" height="369.09"/><rect class="f" x="215.71" y="-17.44" width="1" height="369.09"/><rect class="f" x="223.89" y="-17.32" width="1" height="369.09"/><rect class="f" x="231.87" y="-17.32" width="1" height="369.09"/><rect class="f" x="239.86" y="-17.35" width="1" height="369.09"/><rect class="f" x="247.84" y="-17.35" width="1" height="369.09"/><rect class="f" x="255.84" y="-17.23" width="1" height="369.09"/><rect class="j" x="254.05" y="-17.42" width="1.93" height="369.49"/><rect class="i" x="191" y="-16.79" width="1.01" height="369.09"/><rect class="i" x="127" y="-17.66" width="1" height="369.74"/><rect class="i" x="63.01" y="-17.02" width=".96" height="369.3"/></g></svg>