<?xml version="1.0" encoding="UTF-8"?><svg xmlns="http://www.w3.org/2000/svg" width="772.57" height="480.3" viewBox="0 0 772.57 480.3"><defs><style>.f{fill:#e2e8f0;}.g{fill:#334155;}.h{fill:#bfc8d4;}.i{fill:#cbd5e1;}.j{fill:#0f172a;}.k{fill:#94a3b8;}.l{fill:#64758b;}.m{fill:#475569;}</style></defs><g id="a"><rect class="i" x="4.57" y="121.66" width="263.09" height="358.34"/></g><g id="b"><rect class="h" x=".79" y="351.75" width="258.85" height="31.51"/><rect class="h" x="2.25" y="191.75" width="258.85" height="31.51"/><rect class="h" y="128" width="258.85" height="31.51"/><rect class="h" x="5.07" y="255.74" width="258.85" height="31.51"/><rect class="h" x="3.15" y="415.75" width="258.85" height="31.51"/></g><g id="c"/><g id="d"><rect class="f" x="1.76" y="126.99" width="263.74" height="1.01"/><rect class="f" y="158.99" width="265.19" height="1.01"/><rect class="f" x=".74" y="191.03" width="264.23" height="1.01"/><rect class="f" x="3.52" y="222.97" width="261.17" height="1.01"/><rect class="f" x="2.87" y="255" width="260.36" height="1.01"/><rect class="f" x="2.86" y="286.99" width="260.36" height="1.01"/><rect class="f" x="4.32" y="319.01" width="260.36" height="1.01"/><rect class="f" x=".03" y="350.98" width="260.36" height="1.01"/><rect class="f" x="1.49" y="383" width="260.36" height="1.01"/><rect class="f" x=".58" y="414.99" width="260.36" height="1.01"/><rect class="f" x="2.04" y="447" width="260.36" height="1.01"/><rect class="f" x="2.1" y="479.01" width="260.36" height="1.01"/></g><g id="e"><rect class="f" x="4.57" y="110.98" width="1" height="369.09"/><rect class="f" x="12.55" y="110.98" width="1" height="369.09"/><rect class="f" x="20.54" y="110.95" width="1" height="369.09"/><rect class="f" x="28.53" y="110.95" width="1" height="369.09"/><rect class="f" x="36.7" y="111.07" width="1" height="369.09"/><rect class="f" x="44.69" y="111.07" width="1" height="369.09"/><rect class="f" x="52.68" y="111.04" width="1" height="369.09"/><rect class="f" x="60.66" y="111.04" width="1" height="369.09"/><rect class="f" x="68.63" y="111.03" width="1" height="369.09"/><rect class="f" x="76.62" y="111.03" width="1" height="369.09"/><rect class="f" x="84.61" y="110.99" width="1" height="369.09"/><rect class="f" x="92.59" y="110.99" width="1" height="369.09"/><rect class="f" x="100.77" y="111.11" width="1" height="369.09"/><rect class="f" x="108.75" y="111.11" width="1" height="369.09"/><rect class="f" x="116.74" y="111.08" width="1" height="369.09"/><rect class="f" x="124.73" y="111.08" width="1" height="369.09"/><rect class="f" x="132.25" y="110.56" width="1" height="369.09"/><rect class="f" x="140.24" y="110.56" width="1" height="369.09"/><rect class="f" x="148.23" y="110.53" width="1" height="369.09"/><rect class="f" x="156.21" y="110.53" width="1" height="369.09"/><rect class="f" x="164.39" y="110.64" width="1" height="369.09"/><rect class="f" x="172.37" y="110.64" width="1" height="369.09"/><rect class="f" x="180.36" y="110.61" width="1" height="369.09"/><rect class="f" x="188.34" y="110.61" width="1" height="369.09"/><rect class="f" x="196.32" y="110.6" width="1" height="369.09"/><rect class="f" x="204.3" y="110.6" width="1" height="369.09"/><rect class="f" x="212.29" y="110.57" width="1" height="369.09"/><rect class="f" x="220.28" y="110.57" width="1" height="369.09"/><rect class="f" x="228.45" y="110.68" width="1" height="369.09"/><rect class="f" x="236.44" y="110.68" width="1" height="369.09"/><rect class="f" x="244.43" y="110.65" width="1" height="369.09"/><rect class="f" x="252.41" y="110.65" width="1" height="369.09"/><rect class="f" x="260.41" y="110.77" width="1" height="369.09"/><rect class="m" x="258.61" y="110.58" width="1.93" height="369.49"/><rect class="l" x="195.57" y="111.22" width="1.01" height="369.09"/><rect class="l" x="131.57" y="110.34" width="1" height="369.74"/><rect class="l" x="67.58" y="110.99" width=".96" height="369.3"/><rect class="m" x="352.53" y="115.59" width="263.09" height="358.34"/><rect class="g" x="348.75" y="345.68" width="258.85" height="31.51"/><rect class="g" x="350.21" y="185.68" width="258.85" height="31.51"/><rect class="g" x="347.96" y="121.94" width="258.85" height="31.51"/><rect class="g" x="353.04" y="249.68" width="258.85" height="31.51"/><rect class="g" x="351.11" y="409.69" width="258.85" height="31.51"/><rect class="k" x="349.72" y="120.93" width="263.74" height="1.01"/><rect class="k" x="347.96" y="152.93" width="265.19" height="1.01"/><rect class="k" x="348.7" y="184.97" width="264.23" height="1.01"/><rect class="k" x="351.48" y="216.91" width="261.17" height="1.01"/><rect class="k" x="350.83" y="248.94" width="260.36" height="1.01"/><rect class="k" x="350.83" y="280.93" width="260.36" height="1.01"/><rect class="k" x="352.28" y="312.94" width="260.36" height="1.01"/><rect class="k" x="348" y="344.92" width="260.36" height="1.01"/><rect class="k" x="349.45" y="376.93" width="260.36" height="1.01"/><rect class="k" x="348.55" y="408.92" width="260.36" height="1.01"/><rect class="k" x="350" y="440.94" width="260.36" height="1.01"/><rect class="f" x="350.06" y="472.94" width="260.36" height="1.01"/><rect class="k" x="352.53" y="104.92" width="1" height="369.09"/><rect class="k" x="360.51" y="104.92" width="1" height="369.09"/><rect class="k" x="368.51" y="104.89" width="1" height="369.09"/><rect class="k" x="376.49" y="104.89" width="1" height="369.09"/><rect class="k" x="384.66" y="105" width="1" height="369.09"/><rect class="k" x="392.65" y="105" width="1" height="369.09"/><rect class="k" x="400.64" y="104.97" width="1" height="369.09"/><rect class="k" x="408.62" y="104.97" width="1" height="369.09"/><rect class="k" x="416.6" y="104.96" width="1" height="369.09"/><rect class="k" x="424.58" y="104.96" width="1" height="369.09"/><rect class="k" x="432.57" y="104.93" width="1" height="369.09"/><rect class="k" x="440.56" y="104.93" width="1" height="369.09"/><rect class="k" x="448.73" y="105.05" width="1" height="369.09"/><rect class="k" x="456.72" y="105.05" width="1" height="369.09"/><rect class="k" x="464.71" y="105.02" width="1" height="369.09"/><rect class="k" x="472.69" y="105.02" width="1" height="369.09"/><rect class="k" x="480.22" y="104.49" width="1" height="369.09"/><rect class="k" x="488.2" y="104.49" width="1" height="369.09"/><rect class="k" x="496.19" y="104.46" width="1" height="369.09"/><rect class="k" x="504.17" y="104.46" width="1" height="369.09"/><rect class="k" x="512.35" y="104.58" width="1" height="369.09"/><rect class="k" x="520.33" y="104.58" width="1" height="369.09"/><rect class="k" x="528.32" y="104.55" width="1" height="369.09"/><rect class="k" x="536.31" y="104.55" width="1" height="369.09"/><rect class="k" x="544.28" y="104.54" width="1" height="369.09"/><rect class="k" x="552.27" y="104.54" width="1" height="369.09"/><rect class="k" x="560.26" y="104.5" width="1" height="369.09"/><rect class="k" x="568.24" y="104.5" width="1" height="369.09"/><rect class="k" x="576.42" y="104.62" width="1" height="369.09"/><rect class="k" x="584.4" y="104.62" width="1" height="369.09"/><rect class="k" x="592.39" y="104.59" width="1" height="369.09"/><rect class="k" x="600.37" y="104.59" width="1" height="369.09"/><rect class="k" x="608.37" y="104.71" width="1" height="369.09"/><rect x="606.58" y="104.52" width="1.93" height="369.49"/><rect class="j" x="543.53" y="105.15" width="1.01" height="369.09"/><rect class="j" x="479.53" y="104.28" width="1" height="369.74"/><rect class="j" x="415.55" y="104.92" width=".96" height="369.3"/></g></svg>