<?xml version="1.0" encoding="UTF-8"?><svg xmlns="http://www.w3.org/2000/svg" width="256" height="352.01" viewBox="0 0 256 352.01"><defs><style>.f{fill:#334155;}.g{fill:#1e293b;}.h{fill:#0b111e;}.i{fill:#0f172a;}.j{fill:#475569;}</style></defs><g id="a"/><g id="b"/><g id="c"/><g id="d"/><g id="e"><rect class="j" y="-5.33" width="263.09" height="358.34"/><rect class="f" x="-3.78" y="224.76" width="258.85" height="31.51"/><rect class="f" x="-2.32" y="64.76" width="258.85" height="31.51"/><rect class="f" x="-4.57" y="1.01" width="258.85" height="31.51"/><rect class="f" x=".51" y="128.75" width="258.85" height="31.51"/><rect class="f" x="-1.42" y="288.76" width="258.85" height="31.51"/><rect class="g" x="-2.81" width="263.74" height="1.01"/><rect class="g" x="-4.57" y="32" width="265.19" height="1.01"/><rect class="g" x="-3.83" y="64.04" width="264.23" height="1.01"/><rect class="g" x="-1.05" y="95.98" width="261.17" height="1.01"/><rect class="g" x="-1.7" y="128.01" width="260.36" height="1.01"/><rect class="g" x="-1.7" y="160" width="260.36" height="1.01"/><rect class="g" x="-.25" y="192.01" width="260.36" height="1.01"/><rect class="g" x="-4.53" y="223.99" width="260.36" height="1.01"/><rect class="g" x="-3.08" y="256" width="260.36" height="1.01"/><rect class="g" x="-3.98" y="287.99" width="260.36" height="1.01"/><rect class="g" x="-2.53" y="320.01" width="260.36" height="1.01"/><rect class="g" y="-16.01" width="1" height="369.09"/><rect class="g" x="7.98" y="-16.01" width="1" height="369.09"/><rect class="g" x="15.97" y="-16.04" width="1" height="369.09"/><rect class="g" x="23.96" y="-16.04" width="1" height="369.09"/><rect class="g" x="32.13" y="-15.92" width="1" height="369.09"/><rect class="g" x="40.12" y="-15.92" width="1" height="369.09"/><rect class="g" x="48.11" y="-15.96" width="1" height="369.09"/><rect class="g" x="56.09" y="-15.96" width="1" height="369.09"/><rect class="g" x="72.05" y="-15.97" width="1" height="369.09"/><rect class="g" x="80.04" y="-16" width="1" height="369.09"/><rect class="g" x="88.02" y="-16" width="1" height="369.09"/><rect class="g" x="96.2" y="-15.88" width="1" height="369.09"/><rect class="g" x="104.18" y="-15.88" width="1" height="369.09"/><rect class="g" x="112.18" y="-15.91" width="1" height="369.09"/><rect class="g" x="120.16" y="-15.91" width="1" height="369.09"/><rect class="g" x="135.67" y="-16.44" width="1" height="369.09"/><rect class="g" x="143.66" y="-16.47" width="1" height="369.09"/><rect class="g" x="151.64" y="-16.47" width="1" height="369.09"/><rect class="g" x="159.82" y="-16.35" width="1" height="369.09"/><rect class="g" x="167.8" y="-16.35" width="1" height="369.09"/><rect class="g" x="175.79" y="-16.38" width="1" height="369.09"/><rect class="g" x="183.78" y="-16.38" width="1" height="369.09"/><rect class="g" x="199.74" y="-16.39" width="1" height="369.09"/><rect class="g" x="207.73" y="-16.42" width="1" height="369.09"/><rect class="g" x="215.71" y="-16.42" width="1" height="369.09"/><rect class="g" x="223.89" y="-16.31" width="1" height="369.09"/><rect class="g" x="231.87" y="-16.31" width="1" height="369.09"/><rect class="g" x="239.86" y="-16.34" width="1" height="369.09"/><rect class="g" x="247.84" y="-16.34" width="1" height="369.09"/><rect class="g" x="255.84" y="-16.22" width="1" height="369.09"/><rect class="i" x="254.05" y="-16.41" width="1.93" height="369.49"/><rect class="h" x="63.01" y="-16.01" width="1.19" height="369.3"/><rect class="h" x="126.91" y="-10.13" width="1.19" height="369.3"/><rect class="h" x="191.66" y="-11.55" width="1.19" height="369.3"/></g></svg>